<svg width="24" height="24" viewBox="0 0 29 20" fill="none" xmlns="http://www.w3.org/2000/svg">
<circle cx="12.2377" cy="11.7675" r="11.7622" fill="#2172DD"/>
<path d="M9.78612 5.88672C7.89486 5.88672 6.35645 7.5228 6.35645 9.53278V14.74C6.35645 16.7494 7.89629 18.384 9.78803 18.384H14.6889C16.5802 18.384 18.1186 16.7479 18.1186 14.738V9.53075C18.1186 7.52129 16.5788 5.88672 14.687 5.88672H9.78612ZM15.6682 7.9696C15.9387 7.9696 16.1582 8.20288 16.1582 8.49032C16.1582 8.77776 15.9387 9.01104 15.6682 9.01104C15.3976 9.01104 15.1781 8.77776 15.1781 8.49032C15.1781 8.20288 15.3976 7.9696 15.6682 7.9696ZM12.2375 9.01104C13.8592 9.01104 15.1781 10.4123 15.1781 12.1354C15.1781 13.8584 13.8592 15.2597 12.2375 15.2597C10.6158 15.2597 9.29699 13.8584 9.29699 12.1354C9.29699 10.4123 10.6158 9.01104 12.2375 9.01104ZM12.2375 10.0525C11.7176 10.0525 11.219 10.2719 10.8513 10.6625C10.4837 11.0532 10.2772 11.583 10.2772 12.1354C10.2772 12.6878 10.4837 13.2176 10.8513 13.6082C11.219 13.9988 11.7176 14.2183 12.2375 14.2183C12.7574 14.2183 13.2561 13.9988 13.6237 13.6082C13.9913 13.2176 14.1979 12.6878 14.1979 12.1354C14.1979 11.583 13.9913 11.0532 13.6237 10.6625C13.2561 10.2719 12.7574 10.0525 12.2375 10.0525Z" fill="white"/>
</svg>
