<svg width="20" height="27" viewBox="0 0 20 27" fill="none" xmlns="http://www.w3.org/2000/svg">
<path d="M11.2344 26.0675C13.9062 22.715 20 14.5898 20 10.0259C20 4.49079 15.5208 0 10 0C4.47917 0 0 4.49079 0 10.0259C0 14.5898 6.09375 22.715 8.76562 26.0675C9.40625 26.8664 10.5938 26.8664 11.2344 26.0675ZM10 13.3679C8.16146 13.3679 6.66667 11.8693 6.66667 10.0259C6.66667 8.18263 8.16146 6.68396 10 6.68396C11.8385 6.68396 13.3333 8.18263 13.3333 10.0259C13.3333 11.8693 11.8385 13.3679 10 13.3679Z" fill="#2172DD"/>
</svg>
