<?xml version="1.0" encoding="utf-8"?>
<!-- Generator: Adobe Illustrator 23.0.1, SVG Export Plug-In . SVG Version: 6.00 Build 0)  -->
<svg version="1.1" id="Vrstva_1" xmlns="http://www.w3.org/2000/svg" xmlns:xlink="http://www.w3.org/1999/xlink" x="0px" y="0px"
	 viewBox="0 0 174.4 50.5" style="enable-background:new 0 0 174.4 50.5;" xml:space="preserve">
<style type="text/css">
	.st0{fill:#F8F8F8;}
	.st1{fill:none;stroke:#F8F8F8;stroke-width:2;stroke-miterlimit:10;}
</style>
<g>
	<path class="st0" d="M75.3,48l-4.8-7.4V48h-5.2V31h5.2v7.2l4.8-7.2h5.9l-5.7,8.1l6.1,8.9H75.3z"/>
	<path class="st0" d="M88,47c-1.3-0.8-2.3-1.8-3.1-3.1c-0.8-1.3-1.2-2.8-1.2-4.5s0.4-3.2,1.2-4.5s1.8-2.4,3.1-3.1
		c1.3-0.7,2.7-1.1,4.3-1.1s3,0.4,4.3,1.1s2.3,1.8,3.1,3.1c0.8,1.3,1.1,2.8,1.1,4.5s-0.4,3.2-1.1,4.5c-0.8,1.3-1.8,2.4-3.1,3.1
		c-1.3,0.8-2.7,1.1-4.3,1.1C90.7,48.2,89.3,47.8,88,47z M94.7,42.2c0.6-0.7,0.8-1.6,0.8-2.7c0-1.2-0.3-2.1-0.8-2.8s-1.4-1-2.4-1
		s-1.9,0.3-2.4,1s-0.8,1.6-0.8,2.8c0,1.2,0.3,2.1,0.8,2.7c0.6,0.7,1.4,1,2.4,1S94.1,42.8,94.7,42.2z"/>
	<path class="st0" d="M123.9,31v17h-5.2v-8.5l-2.6,8.5h-4.5l-2.6-8.5V48h-5.2V31h6.4l3.7,10.2l3.6-10.2H123.9z"/>
	<path class="st0" d="M132.6,35.2v2.1h5.2v4h-5.2v2.4h5.9v4.2h-11.1v-17h11.1v4.2h-5.9V35.2z"/>
	<path class="st0" d="M154.7,31v4.2h-4.4V48h-5.2V35.2h-4.4V31C140.7,31,154.7,31,154.7,31z"/>
	<path class="st0" d="M168,45.4h-5.5l-0.8,2.6h-5.5l6.1-17h6l6.1,17h-5.5L168,45.4z M166.7,41.4l-1.5-4.7l-1.5,4.7H166.7z"/>
</g>
<g>
	<path class="st1" d="M174.3,23.8c-5,0-5-4.4-10-4.4s-5,4.4-10,4.4s-5-4.4-10-4.4s-5,4.4-10,4.4s-5-4.4-10-4.4s-5,4.4-10,4.4
		s-5-4.4-10-4.4s-5,4.4-10,4.4s-5-4.4-10-4.4s-5,4.4-10,4.4s-5-4.4-10-4.4"/>
</g>
<g>
	<path class="st0" d="M71.3,6.9c-0.2,0.4-0.6,0.7-1,1c-0.5,0.2-1,0.4-1.7,0.4h-1.3v3h-2.1V2.9h3.3c0.7,0,1.2,0.1,1.7,0.3
		s0.8,0.6,1,1s0.3,0.9,0.3,1.4C71.6,6.1,71.5,6.5,71.3,6.9z M69.3,6.4c0.2-0.2,0.3-0.4,0.3-0.8c0-0.3-0.1-0.6-0.3-0.8
		c-0.2-0.2-0.5-0.3-0.9-0.3h-1.1v2.1h1.1C68.8,6.7,69.1,6.6,69.3,6.4z"/>
	<path class="st0" d="M75.1,9.7h2.7v1.6h-4.7V2.9h2.1L75.1,9.7L75.1,9.7z"/>
	<path class="st0" d="M84.3,9.8h-3.1l-0.5,1.5h-2.2l3.1-8.4H84l3.1,8.4h-2.2L84.3,9.8z M83.8,8.3l-1-3.1l-1,3.1H83.8z"/>
	<path class="st0" d="M96.1,2.9l-3,8.4h-2.6l-3-8.4h2.2l2.1,6.4l2.1-6.4H96.1z"/>
	<path class="st0" d="M99.3,4.5v1.7h2.8v1.6h-2.8v1.9h3.1v1.6h-5.2V2.9h5.2v1.6C102.4,4.5,99.3,4.5,99.3,4.5z"/>
	<path class="st0" d="M104.3,4.9c0.4-0.7,0.9-1.2,1.5-1.5c0.6-0.4,1.4-0.5,2.2-0.5c1,0,1.9,0.3,2.6,0.8c0.7,0.5,1.2,1.2,1.4,2.2
		h-2.3c-0.2-0.4-0.4-0.6-0.7-0.8s-0.7-0.3-1.1-0.3c-0.6,0-1.1,0.2-1.5,0.7c-0.4,0.4-0.6,1-0.6,1.8c0,0.7,0.2,1.3,0.6,1.8
		c0.4,0.4,0.9,0.7,1.5,0.7c0.4,0,0.7-0.1,1.1-0.3c0.3-0.2,0.5-0.5,0.7-0.8h2.3c-0.2,0.9-0.7,1.6-1.4,2.2c-0.7,0.5-1.6,0.8-2.6,0.8
		c-0.8,0-1.5-0.2-2.2-0.5c-0.6-0.4-1.1-0.9-1.5-1.5s-0.5-1.4-0.5-2.2C103.7,6.3,103.9,5.5,104.3,4.9z"/>
	<path class="st0" d="M118.4,11.3l-2.8-3.7v3.7h-2.1V2.9h2.1v3.7l2.8-3.7h2.4L117.5,7l3.4,4.3C120.9,11.3,118.4,11.3,118.4,11.3z"/>
	<path class="st0" d="M127.5,9.8h-3.1l-0.5,1.5h-2.2l3.1-8.4h2.4l3.1,8.4h-2.2L127.5,9.8z M127.3,1.2l-2.9,1.2V1l2.9-1.4V1.2z
		 M126.9,8.3l-1-3.1l-1,3.1H126.9z"/>
	<path class="st0" d="M135.6,11.1c-0.5-0.2-0.9-0.5-1.2-0.9s-0.4-0.9-0.5-1.4h2.2c0,0.3,0.1,0.6,0.3,0.7c0.2,0.2,0.4,0.2,0.7,0.2
		s0.5-0.1,0.7-0.2c0.2-0.1,0.3-0.3,0.3-0.6c0-0.2-0.1-0.4-0.2-0.5c-0.1-0.1-0.3-0.2-0.5-0.3s-0.5-0.2-0.9-0.3
		c-0.5-0.2-1-0.3-1.3-0.5s-0.6-0.4-0.9-0.7c-0.2-0.3-0.4-0.8-0.4-1.3c0-0.8,0.3-1.4,0.9-1.8c0.6-0.4,1.3-0.7,2.2-0.7
		s1.7,0.2,2.2,0.7c0.6,0.4,0.9,1.1,0.9,1.9h-2.2c0-0.3-0.1-0.5-0.3-0.6c-0.2-0.2-0.4-0.2-0.7-0.2c-0.2,0-0.4,0.1-0.6,0.2
		c-0.2,0.1-0.2,0.3-0.2,0.6s0.1,0.5,0.4,0.6c0.3,0.2,0.7,0.3,1.2,0.5s1,0.4,1.3,0.5c0.3,0.2,0.6,0.4,0.9,0.7
		c0.2,0.3,0.4,0.7,0.4,1.2s-0.1,0.9-0.4,1.3c-0.2,0.4-0.6,0.7-1.1,0.9s-1,0.3-1.6,0.3C136.6,11.4,136.1,11.3,135.6,11.1z M139,1.4
		l-1.9,0.9l-1.9-0.9V0l1.9,1l1.9-1V1.4z"/>
	<path class="st0" d="M146.8,11.3L144,7.6v3.7h-2.1V2.9h2.1v3.7l2.8-3.7h2.4L145.9,7l3.4,4.3C149.3,11.3,146.8,11.3,146.8,11.3z"/>
	<path class="st0" d="M152.4,10.9c-0.7-0.4-1.2-0.9-1.6-1.5c-0.4-0.7-0.6-1.4-0.6-2.2s0.2-1.6,0.6-2.2c0.4-0.7,0.9-1.2,1.6-1.5
		c0.7-0.4,1.4-0.6,2.2-0.6s1.5,0.2,2.2,0.6c0.7,0.4,1.2,0.9,1.6,1.5s0.6,1.4,0.6,2.2s-0.2,1.6-0.6,2.2c-0.4,0.7-0.9,1.2-1.6,1.5
		c-0.7,0.4-1.4,0.6-2.2,0.6S153,11.2,152.4,10.9z M156.2,8.9c0.4-0.4,0.6-1,0.6-1.8c0-0.7-0.2-1.3-0.6-1.8c-0.4-0.4-0.9-0.7-1.6-0.7
		c-0.7,0-1.2,0.2-1.6,0.7c-0.4,0.4-0.6,1-0.6,1.8c0,0.7,0.2,1.3,0.6,1.8c0.4,0.4,0.9,0.7,1.6,0.7C155.2,9.5,155.8,9.3,156.2,8.9z"/>
	<path class="st0" d="M162.4,9.7h2.7v1.6h-4.7V2.9h2.1v6.8C162.5,9.7,162.4,9.7,162.4,9.7z"/>
	<path class="st0" d="M171.6,9.8h-3.1l-0.5,1.5h-2.2l3.1-8.4h2.4l3.1,8.4h-2.2L171.6,9.8z M171.1,8.3l-1-3.1l-1,3.1H171.1z"/>
</g>
<path class="st0" d="M13.8,26.4c-0.4-1.8-0.7-6.7-0.7-7.3c0-0.6,0-1.2-0.1-1.7l0,0c-0.3-2.7-1.7-5.1-3.3-7c0.7-0.2,1.8-0.3,2.6-0.3
	c0.6,0,1.2,0.1,1.8,0.2c3.7,0.8,6.6,3.5,6.6,7.4c0,1.1,0,2.1,0,2.1s1-1,2.7-2.1c2.2-1.6,4.9-2.3,7.8-2.3c5.7,0,10.5,3.5,12.5,8.5
	c-2.3-1.8-5.2-2.9-8.3-2.9c-1.3,0-2.6,0.2-3.8,0.5l0,0c0,0-2.6,0.6-4,2c-1.6,1.5-2.8,3.6-2.7,6c0.1,2.2,0.5,3.8,1.9,5.9
	c1.8,2.7,3.4,4.7,5.9,6.7c2.6,2.1,4.4,3.5,7.4,4.8c2.9,1.2,6.3,1.4,9.6,1.4c-1-0.9-1.9-2-2.7-3c-0.7-0.8-1.3-1.7-1.9-2.6
	c-3.2-4.8-5.3-10.4-5.8-16.5c0.4,0,0.8-0.1,1.3-0.1c3.8,0,7.1,1.9,9,4.9c0-0.1,0-0.3,0-0.4c0-6.9-3.7-12.9-9.3-16.2
	c-2.1-1.2-5.2-1.9-7.6-2.3C29.5,6.3,24.1,2.3,17,2.3c-0.4,0-0.8,0-1.2,0C8.8,2.7,2.9,7,0,13c1-0.8,2.2-1.2,3.6-1.2
	c3.3,0,5.9,2.7,5.9,5.9v0.1c0,0.3,0,0.6-0.1,0.9c0,0.7-0.1,1.3-0.1,2c0,4.6,1,8.9,2.9,12.7c1.1,2.3,2.5,4.4,4.1,6.3
	c3.9,4.6,9.1,7.9,15,9.5c1.6,0.4,3.2,0.7,4.9,0.9C25.1,46.8,16.5,37.7,13.8,26.4z"/>
</svg>
