<svg width="20" height="20" viewBox="0 0 20 20" fill="none" xmlns="http://www.w3.org/2000/svg">
<g clip-path="url(#clip0_760_833)">
<path d="M6.44141 0.960598C6.14062 0.234035 5.34766 -0.152684 4.58984 0.0543476L1.15234 0.991848C0.472656 1.17935 0 1.79654 0 2.49966C0 12.1637 7.83594 19.9997 17.5 19.9997C18.2031 19.9997 18.8203 19.527 19.0078 18.8473L19.9453 15.4098C20.1523 14.652 19.7656 13.859 19.0391 13.5583L15.2891 11.9958C14.6523 11.7301 13.9141 11.9137 13.4805 12.4489L11.9023 14.3747C9.15234 13.0739 6.92578 10.8473 5.625 8.09732L7.55078 6.5231C8.08594 6.0856 8.26953 5.35122 8.00391 4.7145L6.44141 0.964504V0.960598Z" fill="#2172DD"/>
</g>
<defs>
<clipPath id="clip0_760_833">
<rect width="20" height="20" fill="white"/>
</clipPath>
</defs>
</svg>
